<?xml version="1.0" encoding="UTF-8"?><svg width="1em" height="1em" xmlns="http://www.w3.org/2000/svg" viewBox="0 0 240 234"><defs><style>.adobe-media-encoder-cls-1{fill:#00005b;}.adobe-media-encoder-cls-2{fill:#99f;}</style></defs><path class="adobe-media-encoder-cls-1" d="M42.5,0H197.5c23.5,0,42.5,19,42.5,42.5V191.5c0,23.5-19,42.5-42.5,42.5H42.5c-23.5,0-42.5-19-42.5-42.5V42.5C0,19,19,0,42.5,0Z"/><path class="adobe-media-encoder-cls-2" d="M33.8,60.9c.1-.6,.6-1,1.2-1h28.1c.8-.1,1.5,.4,1.7,1.1,.7,2.8,1.6,6.1,2.6,10.1,1,3.9,2.1,8.2,3.3,13,1.2,4.7,2.4,9.6,3.6,14.5s2.4,9.7,3.6,14.4c1.2,4.7,2.2,9,3,12.9s1.5,7.2,2,9.7h.2c.4-2.3,1.1-5.3,2.1-9,1-3.8,2.2-8,3.5-12.6,1.3-4.7,2.7-9.5,4.1-14.4s2.7-9.8,4.1-14.7c1.3-4.8,2.6-9.3,3.7-13.4,1.2-4.1,2.1-7.6,2.8-10.4,.1-.7,.7-1.2,1.4-1.1h27.4c.7-.1,1.3,.4,1.4,1v.1l3.7,102.9c.1,.4,0,.8-.2,1-.3,.3-.6,.4-1,.4h-19.9c-.3,0-.5-.1-.8-.2-.2-.2-.3-.6-.3-.9,0-5.5,0-11.2-.1-17.2s-.1-12-.2-18.1c-.1-6.1-.1-11.9,0-17.5s.2-10.7,.2-15.5,0-8.8,.1-12.3,.1-6.1,.1-7.8h-.2c-.6,2.7-1.4,6.2-2.4,10.5s-2.2,9.2-3.6,14.7c-1.4,5.4-2.9,11-4.4,16.8-1.6,5.8-3.1,11.5-4.6,17.2s-2.9,11-4.3,15.9-2.5,9.3-3.4,13c-.2,.8-.9,1.3-1.7,1.3h-17.5c-.9,.1-1.7-.4-1.8-1.3-.9-3.8-2-8.1-3.1-13-1.2-4.9-2.4-10.1-3.6-15.5-1.2-5.4-2.5-10.9-3.9-16.5s-2.7-11.1-3.9-16.3c-1.2-5.3-2.3-10.2-3.3-14.8-1-4.6-1.9-8.7-2.7-12.2h-.3v12.7c0,4.9-.1,10.4-.2,16.3-.2,6-.3,12.2-.5,18.7s-.3,13.2-.5,20.1c-.2,6.9-.5,13.8-.8,20.5,0,.9-.4,1.3-1.2,1.3H29.6c-.3,0-.7-.1-1-.2-.3-.2-.3-.6-.2-1.2l5.4-103Zm162.9,69.4h-31.7c.4,3,1.4,5.9,3.1,8.5,1.8,2.7,4.3,4.8,7.3,6,3.3,1.5,7.5,2.3,12.8,2.3,3.5,0,7-.3,10.4-.9,3.2-.6,6.4-1.5,9.4-2.8,.5-.4,.8-.2,.8,.8v15.3c0,.4-.1,.8-.2,1.2-.2,.3-.4,.5-.7,.7-3.3,1.6-6.8,2.7-10.5,3.5-4.7,.9-9.4,1.3-14.2,1.2-7.6,0-14-1.2-19.2-3.5-4.9-2.1-9.2-5.4-12.6-9.5-3.2-3.9-5.5-8.3-6.9-13.1-1.4-4.7-2.1-9.6-2.1-14.6,0-5.4,.8-10.7,2.5-15.9,1.6-5,4.1-9.6,7.5-13.7,3.3-4,7.4-7.2,12.1-9.5,5.2-2.4,11-3.6,16.7-3.5,5.3-.1,10.6,.9,15.5,3.1,4.1,1.9,7.8,4.7,10.5,8.3,2.6,3.4,4.7,7.2,6,11.4,1.3,4,1.9,8.1,1.9,12.2,0,2.4-.1,4.5-.2,6.4-.2,1.9-.3,3.3-.4,4.2-.1,.7-.7,1.3-1.4,1.3-.6,0-1.7,.1-3.3,.2-1.6,.2-3.5,.3-5.8,.3-2.3,0-4.8,.1-7.3,.1Zm-31.7-15.7h21c2.6,0,4.5,0,5.7-.1,.8,0,1.6-.1,2.3-.2v-1c0-1.3-.2-2.5-.6-3.7-1.8-5.6-7.1-9.4-13-9.2-5.5-.3-10.7,2.6-13.3,7.6-1.1,2.1-1.8,4.3-2.1,6.6Z"/></svg>