<?xml version="1.0" encoding="UTF-8"?><svg xmlns="http://www.w3.org/2000/svg" xmlns:xlink="http://www.w3.org/1999/xlink" width="1em" height="1em" viewBox="0 0 12 12"><defs><style>.python-cls-1{fill:url(#python-linear-gradient);}.python-cls-2{fill:url(#python-linear-gradient-2);}</style><linearGradient id="python-linear-gradient" x1="2503.72" y1="3912.86" x2="2558.4" y2="3967.72" gradientTransform="translate(-272.01 -425.79) scale(.11)" gradientUnits="userSpaceOnUse"><stop offset="0" stop-color="#387eb8"/><stop offset="1" stop-color="#366994"/></linearGradient><linearGradient id="python-linear-gradient-2" x1="2536.95" y1="3947.91" x2="2595.57" y2="4004.07" gradientTransform="translate(-272.01 -425.79) scale(.11)" gradientUnits="userSpaceOnUse"><stop offset="0" stop-color="#ffe052"/><stop offset="1" stop-color="#ffc331"/></linearGradient></defs><path class="python-cls-1" d="M5.98,0C3.15,0,3.12,1.1,3.12,1.33v1.37h2.92v.41H1.96c-.87,0-1.96,.53-1.96,2.86,0,2.15,.85,2.98,1.71,2.98h1.02v-1.43c0-.6,.3-1.71,1.68-1.71h2.89c.43,0,1.63-.19,1.63-1.57V1.6c0-.34-.06-1.6-2.95-1.6Zm-1.61,.92c.29,0,.53,.23,.53,.53s-.23,.53-.53,.53-.53-.23-.53-.53,.23-.53,.53-.53Z"/><path class="python-cls-2" d="M6.02,12c2.83,0,2.87-1.12,2.87-1.33v-1.37h-2.92v-.41h4.08c.87,0,1.96-.54,1.96-2.86,0-2.54-1.15-2.98-1.71-2.98h-1.02v1.43c0,.6-.29,1.71-1.68,1.71h-2.89c-.42,0-1.63,.21-1.63,1.57v2.64c0,.57,.35,1.6,2.95,1.6Zm1.61-.92c-.29,0-.53-.23-.53-.53s.23-.53,.53-.53,.53,.23,.53,.53-.23,.53-.53,.53Z"/></svg>