<?xml version="1.0" encoding="UTF-8"?><svg id="Layer_1" xmlns="http://www.w3.org/2000/svg" viewBox="0 0 195.35 58.87"><defs><style>.cls-1{fill:#6e298d;}</style></defs><g><path class="cls-1" d="M33.76,4.26c-1.87-3.48-4.97-3.48-6.85,0L.77,52.56c-1.89,3.47-.19,6.31,3.76,6.31H56.15c3.96,0,5.64-2.84,3.76-6.31L33.76,4.26Z"/><path class="cls-1" d="M80.18,54.52c-1.88,3.47-4.96,3.47-6.84,0L47.24,6.31c-1.88-3.48-.18-6.31,3.75-6.31h51.53c3.94,0,5.64,2.84,3.75,6.31l-26.09,48.21Z"/><path class="cls-1" d="M192.11,25.98c3.39,1.96,3.39,5.15,0,7.09l-41.77,24.01c-3.37,1.94-6.15,.35-6.15-3.57V5.56c0-3.92,2.78-5.52,6.15-3.58l41.77,24Z"/><path class="cls-1" d="M134.16,51.93c0,3.82-3.12,6.94-6.93,6.94h-6.21c-3.81,0-6.93-3.12-6.93-6.94V6.95c0-3.83,3.12-6.95,6.93-6.95h6.21c3.81,0,6.93,3.12,6.93,6.95V51.93Z"/></g><path class="cls-1" d="M189.11,55.33c0-1.83,1.33-3.19,3.13-3.19s3.11,1.32,3.11,3.16-1.32,3.19-3.12,3.19-3.12-1.32-3.12-3.16Zm5.68-.01c0-1.54-1.08-2.67-2.57-2.67s-2.55,1.08-2.55,2.66,1.08,2.67,2.57,2.67,2.55-1.08,2.55-2.66Zm-2.02,1.39l-.72-.94h-.38v.87c0,.21-.1,.33-.3,.33h-.1c-.2,0-.3-.15-.3-.4v-2.51c0-.25,.14-.4,.38-.4h1c.85,0,1.31,.34,1.31,1.04,0,.53-.32,.9-.88,.98l.84,1.02s-.16,.27-.4,.27c-.13,0-.32-.07-.45-.26Zm-1.1-1.49h.67c.4,0,.61-.19,.61-.49,0-.34-.23-.49-.64-.49h-.64v.98Z"/></svg>