<?xml version="1.0" encoding="UTF-8"?><svg id="Layer_1" xmlns="http://www.w3.org/2000/svg" xmlns:xlink="http://www.w3.org/1999/xlink" viewBox="0 0 61.35 58.4"><defs><style>.cls-1{fill:#105c80;}.cls-2{fill:#0c541e;}.cls-3{fill:#0b4819;}.cls-4{fill:#084010;}.cls-5{fill:#13802d;}.cls-6{fill:#1a5c34;}.cls-7{fill:url(#radial-gradient);}</style><radialGradient id="radial-gradient" cx="-122.39" cy="349.28" fx="-122.39" fy="349.28" r="29.58" gradientTransform="translate(134.45 -338.27)" gradientUnits="userSpaceOnUse"><stop offset="0" stop-color="#fff"/><stop offset="1" stop-color="#007808"/></radialGradient></defs><path class="cls-3" d="M.51,12.36V5.08l4.89,1.68v6.78L.51,12.36Z"/><path class="cls-3" d="M4.45,42.32V15.23l4.67,.99v25.18l-4.67,.92Z"/><path class="cls-1" d="M27.32,5.07l-12.01,13.78v5.86L33.13,4.62l28.22-2.18L19.83,45.71l5.53,.29L55.52,15.15v29.15l-3.35,3.15,8.5,.46v8.07l-26.65-2.06,13.58-13.18v-6.49l-19.42,19.22-23.26-1.8L42.22,11.55l-6.14,.33L9.13,41.39V16.21l2.55-3.01-6.28,.34V6.76l21.92-1.7Z"/><path class="cls-3" d="M4.45,15.23l2.7-3.25,4.52,1.23-2.55,3.01-4.67-.99Z"/><path class="cls-4" d="M11,18.04l4.3,.81v5.86l-4.3-.35v-6.32Z"/><path class="cls-2" d="M15.82,47.01l4.01-1.3,5.53,.29-3.65,1.35-5.89-.34Z"/><path class="cls-6" d="M23.81,3.11l3.51,1.96-12.01,13.78-4.3-.81L23.81,3.11Z"/><path class="cls-3" d="M11,24.36L30.02,2.58l3.1,2.04L15.31,24.71l-4.3-.35Z"/><path class="cls-6" d="M33.19,10.43l2.89,1.45L9.13,41.39l-4.67,.92L33.19,10.43Z"/><path class="cls-3" d="M0,53.34L39.8,10.04l2.42,1.51L4.92,51.67l-4.92,1.68Z"/><path class="cls-6" d="M45.6,34.68l2-.43-19.42,19.22-3.45,1.97,20.88-20.76Z"/><path class="cls-3" d="M45.6,41.74v-7.06l2-.43v6.49l-2,1Z"/><path class="cls-3" d="M30.97,55.96l14.62-14.23,2-1-13.58,13.18-3.04,2.05Z"/><path class="cls-5" d="M54.17,45.65l-3.63,3.41,1.63-1.6,3.35-3.15-1.35,1.34Z"/><path class="cls-3" d="M21.71,47.35L54.17,13.9l1.35,1.25-30.15,30.84-3.65,1.35Z"/><path class="cls-4" d="M54.17,13.9l1.35,1.25v29.15l-1.35,1.34V13.9Z"/><path class="cls-4" d="M59.76,49.6l.9-1.69v8.07l-.9,2.42v-8.8Z"/><path class="cls-6" d="M60.51,0l.84,2.43L19.83,45.71l-4.01,1.3L60.51,0Z"/><path class="cls-7" d="M23.81,3.11l-12.8,14.93v6.32L30.02,2.58,60.51,0,15.82,47.01l5.89,.34L54.17,13.9v31.75l-3.63,3.41,9.22,.54v8.8l-28.79-2.44,14.62-14.23v-7.06l-20.88,20.76L0,53.34,39.8,10.04l-6.6,.39L4.45,42.32V15.23l2.7-3.25-6.65,.39V5.08l23.3-1.97Z"/></svg>