<svg id="favicon" xmlns="http://www.w3.org/2000/svg" viewBox="0 0 1024 1024">
  <style>
    #favicon {
        fill: black;
    }
    @media (prefers-color-scheme: dark) {
        #favicon {
          fill: white;
        }
      }
  </style>
  <g id="Corners">
    <path
      d="M941.19,859.43c0,43.18-35.04,78.3-78.12,78.3h-90.44v82.26h90.44c88.36,0,160.25-72.03,160.25-160.56v-36.65h-82.13v36.65Z"
    />
    <path
      d="M863.07,4.01h-90.44V86.26h90.44c43.08,0,78.12,35.13,78.12,78.3v38.3h82.13v-38.3c0-88.53-71.89-160.56-160.25-160.56Z"
    />
    <path
      d="M82.81,859.43v-36.65H.68v36.65c0,88.53,71.89,160.56,160.25,160.56h97.05v-82.26h-97.05c-43.08,0-78.12-35.13-78.12-78.3Z"
    />
    <path
      d="M.68,164.57v38.3H82.81v-38.3c0-43.18,35.04-78.3,78.12-78.3h97.05V4.01h-97.05C72.57,4.01,.68,76.03,.68,164.57Z"
    />
  </g>
  <path
    id="AW"
    d="M839.38,298.96l-1.43,4.56c-19.82,63.06-56.7,180.72-89.06,285.97-5.11-16.73-9.53-31.24-13.49-44.21-22.06-72.32-29.49-96.68-59.36-190.72-9.78-30.8-40.63-61.87-87.48-61.87-53.1,0-79.73,38.82-87.09,61.76-37.62,117.29-42.87,134.77-72.97,235.79-14.56-47.29-23.36-75.46-31.91-102.8l-.15-.47c-10.54-33.72-20.49-65.57-40.4-130.59-9.5-31-40.27-62.29-87.61-62.29-22.74,0-64.1,7.54-85.7,58.05l-.66,1.54-.73,2.17c-37.47,116.81-93.79,295.03-110.16,346.86l-2.68,8.48h88.41l1.44-4.55c6.6-20.88,15.98-50.56,26.79-84.7h164.9c4.63,15.04,9.82,31.97,15.75,51.3,4.53,14.78,18.72,39.57,62.96,39.57,47.47,0,60.26-30.51,63.05-39.87,6.05-20.29,11.32-37.96,15.99-53.64,31.82-106.82,35.93-120.61,73.76-238.56,1.06-2.41,3.41-3.63,6.99-3.63,3.88,0,6.32,1.14,7.27,3.39,29.59,93.14,36.97,117.35,58.86,189.11l.1,.32c7.93,25.99,17.72,58.1,31.14,101.9,4.53,14.78,18.73,39.56,62.96,39.56,47.25,0,60.16-30.34,62.98-39.64,40.27-132.29,96.85-312.31,113.23-364.34l2.67-8.48h-88.38Zm-578.47,84.87c2.46-5.3,3.39-5.3,7.53-5.3,4.92,0,6.61,1.89,7.19,3.15,19.82,64.69,29.79,96.6,40.34,130.38l.04,.14c2.25,7.19,4.51,14.44,6.89,22.07h-109.94c19.1-60.17,35.23-110.74,47.95-150.43Z"
  />
</svg>