<?xml version="1.0" encoding="UTF-8"?><svg width="1em" height="1em" id="White_Logo_Transparent_BG_copy" xmlns="http://www.w3.org/2000/svg" viewBox="0 0 1096 1028"><defs><style>.aw-logo-cls-1{fill:#fff;}</style></defs><g><path class="aw-logo-cls-1" d="M1030.31,839.66v23.55c0,54.57-44.3,98.97-98.76,98.97h-87.37v65.83h87.37c90.83,0,164.46-73.78,164.46-164.79v-23.55h-65.69Z"/><path class="aw-logo-cls-1" d="M1030.31,168.79v25.38h65.69v-25.38c0-91.01-73.63-164.79-164.46-164.79h-87.37V69.83h87.37c54.46,0,98.76,44.4,98.76,98.97Z"/><path class="aw-logo-cls-1" d="M65.69,863.21v-23.55H0v23.55c0,91.01,73.63,164.79,164.46,164.79h94.67v-65.83h-94.67c-54.46,0-98.76-44.4-98.76-98.97Z"/><path class="aw-logo-cls-1" d="M164.46,4C73.63,4,0,77.78,0,168.79v25.38H65.69v-25.38c0-54.57,44.3-98.97,98.76-98.97h94.67V4h-94.67Z"/></g><path class="aw-logo-cls-1" d="M904.76,294.19c-20.57,65.44-65.38,208.35-102.35,328.94-8.43-27.58-15.28-50.04-21.17-69.35-23.68-77.65-31.66-103.8-63.73-204.76-9.74-30.65-40.5-61.57-87.28-61.57-53,0-79.54,38.63-86.87,61.47-41.03,127.92-46.21,145.3-79.91,258.4-1.61,5.4-3.28,11.01-5.03,16.87-19.94-64.89-30.72-99.41-41.21-132.99-11.34-36.29-22.05-70.57-43.41-140.29-9.45-30.84-40.13-61.95-87.4-61.95-22.69,0-63.99,7.55-85.61,58.1l-.71,1.66-.55,1.71c-40.68,126.83-102.96,323.91-118.3,372.51h80.27c7.4-23.41,18.06-57.14,30.33-95.86h187.4c5.35,17.38,11.42,37.14,18.44,60.05,4.29,14.02,17.92,37.55,60.93,37.55,46.15,0,58.37-28.95,61.01-37.82,6.5-21.79,12.15-40.76,17.17-57.6,34.22-114.88,38.64-129.7,79.36-256.64,1.06-2.63,4.5-8.48,14.08-8.48s13.2,5.16,14.4,8.28c31.91,100.42,39.85,126.48,63.42,203.77,8.51,27.91,19.03,62.4,33.44,109.44,4.3,14.02,17.93,37.54,60.93,37.54,45.94,0,58.27-28.8,60.95-37.61,43.62-143.29,105.39-339.78,121.63-391.37h-80.24ZM217.25,546.91c18.67-58.81,38.28-120.43,54.53-171.11,3.95-8.64,7.29-10.15,14.62-10.15,10,0,13.32,5.51,14.31,7.99,21.38,69.79,32.1,104.12,43.46,140.48,3.29,10.53,6.61,21.16,10.23,32.79H217.25Z"/></svg>