<?xml version="1.0" encoding="utf-8"?>
<!-- Generator: Adobe Illustrator 27.0.0, SVG Export Plug-In . SVG Version: 6.00 Build 0)  -->
<svg version="1.1" id="Layer_1" xmlns="http://www.w3.org/2000/svg" xmlns:xlink="http://www.w3.org/1999/xlink" x="0px" y="0px"
	 viewBox="0 0 32 32" style="enable-background:new 0 0 32 32;" xml:space="preserve">
<style type="text/css">
	.st0{fill:none;}
	.st1{fill:#FFFFFF;}
	.st2{fill:#283037;}
	.st3{fill:#4DA825;}
</style>
<g>
	<rect x="1" y="1" class="st0" width="30" height="30"/>
	<g>
		<g>
			<path class="st1" d="M27.3,7.13L17.83,1.5c-1.13-0.67-2.52-0.67-3.65,0L4.7,7.13C3.57,7.8,2.88,9.04,2.88,10.38v11.24
				c0,1.34,0.7,2.58,1.83,3.25l9.47,5.62c0.57,0.34,1.2,0.5,1.83,0.5c0.63,0,1.26-0.17,1.83-0.5l9.47-5.62
				c1.13-0.67,1.83-1.91,1.83-3.25V10.38C29.12,9.04,28.43,7.8,27.3,7.13z"/>
		</g>
		<g>
			<path class="st2" d="M27.3,7.13L17.83,1.5C17.26,1.17,16.63,1,16,1c-0.63,0-1.26,0.17-1.83,0.5L4.7,7.13
				C3.57,7.8,2.88,9.04,2.88,10.38v11.24c0,1.34,0.7,2.58,1.83,3.25l9.47,5.62c0.57,0.34,1.2,0.5,1.83,0.5
				c0.63,0,1.26-0.17,1.83-0.5l9.47-5.62c1.13-0.67,1.83-1.91,1.83-3.25V10.38C29.12,9.04,28.43,7.8,27.3,7.13z M14.5,29.92
				L5.03,24.3c-0.93-0.55-1.5-1.58-1.5-2.68V10.38c0-1.1,0.58-2.13,1.5-2.68l9.47-5.62c0.45-0.27,0.97-0.41,1.5-0.41
				s1.04,0.14,1.5,0.41l9.47,5.62c0.78,0.46,1.31,1.27,1.46,2.17C28.11,9.2,27.4,9.01,26.57,9.5l-8.96,5.53
				c-1.12,0.65-1.94,1.39-1.94,2.73V28.8c0,0.81,0.33,1.33,0.83,1.48c-0.16,0.03-0.33,0.05-0.5,0.05
				C15.48,30.33,14.96,30.19,14.5,29.92z"/>
		</g>
		<g>
			<path class="st3" d="M24.82,22.71l-2.36,1.41c-0.06,0.04-0.11,0.08-0.11,0.15v0.62c0,0.08,0.05,0.11,0.11,0.07l2.39-1.46
				c0.06-0.04,0.07-0.11,0.07-0.18v-0.54C24.93,22.7,24.88,22.67,24.82,22.71z"/>
		</g>
		<g>
			<path class="st1" d="M19.79,17.51c0.08-0.04,0.14,0.01,0.14,0.11l0.01,0.82c0.34-0.14,0.64-0.17,0.91-0.11
				c0.06,0.02,0.08,0.09,0.06,0.19l-0.18,0.72c-0.01,0.05-0.04,0.11-0.08,0.14c-0.02,0.02-0.03,0.03-0.05,0.03
				c-0.02,0.01-0.05,0.02-0.07,0.01c-0.12-0.03-0.41-0.09-0.87,0.14c-0.48,0.24-0.65,0.66-0.65,0.97c0,0.37,0.19,0.48,0.85,0.49
				c0.88,0.01,1.25,0.4,1.26,1.28c0.01,0.87-0.45,1.79-1.16,2.36l0.02,0.81c0,0.1-0.06,0.21-0.14,0.25l-0.48,0.28
				c-0.08,0.04-0.14-0.01-0.14-0.11l-0.01-0.79c-0.41,0.17-0.82,0.21-1.09,0.1c-0.05-0.02-0.07-0.09-0.05-0.18l0.17-0.73
				c0.01-0.06,0.04-0.12,0.09-0.15c0.01-0.01,0.03-0.02,0.05-0.03c0.03-0.01,0.05-0.02,0.08-0.01c0.29,0.1,0.65,0.05,1-0.13
				c0.45-0.23,0.75-0.68,0.74-1.13c0-0.41-0.23-0.58-0.77-0.58c-0.69,0-1.33-0.13-1.34-1.15c-0.01-0.83,0.42-1.7,1.11-2.25
				l-0.01-0.82c0-0.1,0.06-0.21,0.14-0.25L19.79,17.51z"/>
		</g>
	</g>
</g>
</svg>
