<?xml version="1.0" encoding="utf-8"?>
<!-- Generator: Adobe Illustrator 27.0.0, SVG Export Plug-In . SVG Version: 6.00 Build 0)  -->
<svg version="1.1" id="Layer_1" xmlns="http://www.w3.org/2000/svg" xmlns:xlink="http://www.w3.org/1999/xlink" x="0px" y="0px"
	 viewBox="0 0 18 18.55" width="1em" height="1em" style="enable-background:new 0 0 18 18.55;" xml:space="preserve">
<style type="text/css">
	.st0{stroke:#000000;stroke-width:1.4463;}
	.st1{fill:#336791;}
	.st2{fill:none;stroke:#FFFFFF;stroke-width:0.4821;stroke-linecap:round;stroke-linejoin:round;}
	.st3{fill:none;stroke:#FFFFFF;stroke-width:0.4821;stroke-linecap:round;stroke-linejoin:bevel;}
	.st4{fill:#FFFFFF;stroke:#FFFFFF;stroke-width:0.1607;}
	.st5{fill:#FFFFFF;stroke:#FFFFFF;stroke-width:0.0803;}
	.st6{fill:none;stroke:#FFFFFF;stroke-width:0.116;stroke-linecap:round;stroke-linejoin:round;}
</style>
<g>
	<g id="orginal">
	</g>
	<g id="Layer_x0020_3">
		<path class="st0" d="M13.07,13.31c0.11-0.91,0.08-1.05,0.76-0.9L14,12.42c0.52,0.02,1.21-0.08,1.61-0.27
			c0.86-0.4,1.38-1.07,0.52-0.9c-1.95,0.4-2.08-0.26-2.08-0.26c2.05-3.05,2.91-6.92,2.17-7.86c-2.02-2.58-5.52-1.36-5.58-1.33
			l-0.02,0c-0.38-0.08-0.81-0.13-1.3-0.14C8.45,1.66,7.79,1.9,7.28,2.29c0,0-6.24-2.57-5.95,3.23c0.06,1.24,1.77,9.35,3.81,6.9
			c0.74-0.9,1.46-1.65,1.46-1.65c0.36,0.24,0.79,0.36,1.23,0.32l0.03-0.03c-0.01,0.11-0.01,0.22,0.01,0.35
			c-0.52,0.59-0.37,0.69-1.42,0.91c-1.06,0.22-0.44,0.61-0.03,0.71c0.49,0.12,1.64,0.3,2.41-0.78l-0.03,0.12
			c0.21,0.16,0.19,1.18,0.22,1.91c0.03,0.73,0.08,1.41,0.23,1.81c0.15,0.4,0.32,1.43,1.7,1.14C12.11,16.97,12.99,16.61,13.07,13.31"
			/>
		<path class="st1" d="M16.14,11.26c-1.95,0.4-2.08-0.26-2.08-0.26c2.05-3.05,2.91-6.92,2.17-7.86c-2.02-2.58-5.52-1.36-5.58-1.33
			l-0.02,0c-0.38-0.08-0.81-0.13-1.3-0.14C8.45,1.66,7.79,1.9,7.28,2.29c0,0-6.24-2.57-5.95,3.23c0.06,1.24,1.77,9.35,3.81,6.9
			c0.74-0.9,1.46-1.65,1.46-1.65c0.36,0.24,0.79,0.36,1.23,0.32l0.03-0.03c-0.01,0.11-0.01,0.22,0.01,0.35
			c-0.53,0.59-0.37,0.69-1.42,0.91c-1.06,0.22-0.44,0.61-0.03,0.71c0.49,0.12,1.64,0.3,2.41-0.78l-0.03,0.12
			c0.21,0.16,0.35,1.07,0.33,1.89c-0.02,0.82-0.04,1.39,0.12,1.83c0.16,0.44,0.32,1.43,1.7,1.14c1.15-0.25,1.75-0.89,1.83-1.96
			c0.06-0.76,0.19-0.65,0.2-1.33l0.11-0.32c0.12-1.03,0.02-1.36,0.73-1.21L14,12.42c0.52,0.02,1.21-0.08,1.61-0.27
			C16.48,11.75,16.99,11.08,16.14,11.26L16.14,11.26z"/>
		<path class="st2" d="M8.92,11.85c-0.05,1.92,0.01,3.84,0.2,4.31c0.19,0.47,0.59,1.38,1.97,1.08c1.15-0.25,1.57-0.73,1.75-1.78
			c0.13-0.78,0.39-2.93,0.43-3.38"/>
		<path class="st2" d="M7.27,2.25c0,0-6.25-2.55-5.96,3.25c0.06,1.24,1.77,9.35,3.81,6.9c0.74-0.9,1.42-1.6,1.42-1.6"/>
		<path class="st2" d="M10.64,1.78c-0.22,0.07,3.47-1.35,5.57,1.33c0.74,0.95-0.12,4.82-2.17,7.86"/>
		<path class="st3" d="M14.04,10.97c0,0,0.13,0.66,2.08,0.26c0.85-0.18,0.34,0.49-0.53,0.9c-0.71,0.33-2.3,0.41-2.33-0.04
			C13.21,10.91,14.11,11.27,14.04,10.97c-0.06-0.26-0.46-0.52-0.73-1.17c-0.23-0.57-3.2-4.91,0.82-4.26
			c0.15-0.03-1.05-3.83-4.82-3.89C5.55,1.59,5.68,6.28,5.68,6.28"/>
		<path class="st2" d="M7.87,11.38c-0.53,0.59-0.37,0.69-1.42,0.91c-1.06,0.22-0.44,0.61-0.03,0.71c0.49,0.12,1.64,0.3,2.41-0.78
			c0.24-0.33,0-0.85-0.32-0.99C8.35,11.16,8.14,11.08,7.87,11.38L7.87,11.38z"/>
		<path class="st2" d="M7.83,11.37c-0.05-0.34,0.11-0.76,0.29-1.24C8.39,9.41,9.01,8.69,8.52,6.4C8.15,4.7,5.68,6.05,5.68,6.28
			c0,0.23,0.11,1.17-0.04,2.26c-0.2,1.43,0.91,2.64,2.18,2.51"/>
		<path class="st4" d="M7.25,6.25C7.24,6.33,7.39,6.54,7.59,6.56c0.2,0.03,0.38-0.14,0.39-0.21c0.01-0.08-0.14-0.17-0.35-0.19
			C7.43,6.13,7.26,6.17,7.25,6.25L7.25,6.25z"/>
		<path class="st5" d="M13.41,6.09c0.01,0.08-0.14,0.29-0.35,0.32c-0.2,0.03-0.38-0.14-0.39-0.21c-0.01-0.08,0.14-0.17,0.35-0.19
			C13.23,5.97,13.4,6.01,13.41,6.09L13.41,6.09z"/>
		<path class="st2" d="M14.14,5.54c0.03,0.62-0.13,1.04-0.15,1.7c-0.03,0.96,0.46,2.05-0.28,3.15"/>
		<path class="st6" d="M0.57,3.1"/>
	</g>
</g>
</svg>
