<?xml version="1.0" encoding="UTF-8"?><svg width="1em" height="1em" xmlns="http://www.w3.org/2000/svg" viewBox="0 0 11.25 11.25"><defs><style>.bash-cls-1{fill:none;}.bash-cls-2{fill:#fff;}.bash-cls-3{fill:#283037;}.bash-cls-4{fill:#4da825;}</style></defs><rect class="bash-cls-1" y="0" width="11.25" height="11.25"/><g><path class="bash-cls-2" d="M9.86,2.3L6.31,.19c-.42-.25-.95-.25-1.37,0L1.39,2.3c-.42,.25-.68,.72-.68,1.22V7.73c0,.5,.26,.97,.69,1.22l3.55,2.11c.21,.13,.45,.19,.69,.19s.47-.06,.69-.19l3.55-2.11c.42-.25,.69-.72,.69-1.22V3.52c0-.5-.27-.97-.69-1.22Z"/><path class="bash-cls-3" d="M9.86,2.3L6.31,.19C6.1,.06,5.86,0,5.62,0s-.47,.06-.69,.19L1.39,2.3c-.42,.25-.68,.72-.68,1.22V7.73c0,.5,.26,.97,.69,1.22l3.55,2.11c.21,.13,.45,.19,.69,.19s.47-.06,.69-.19l3.55-2.11c.42-.25,.69-.72,.69-1.22V3.52c0-.5-.27-.97-.69-1.22ZM5.06,10.85l-3.55-2.11c-.35-.21-.56-.59-.56-1.01V3.52c0-.41,.22-.8,.56-1.01L5.06,.41c.17-.1,.36-.15,.56-.15s.39,.05,.56,.15l3.55,2.11c.29,.17,.49,.48,.55,.81-.12-.25-.39-.32-.7-.14l-3.36,2.07c-.42,.24-.73,.52-.73,1.02v4.14c0,.3,.12,.5,.31,.55-.06,.01-.12,.02-.19,.02-.2,0-.39-.05-.56-.15Z"/><path class="bash-cls-4" d="M8.93,8.14l-.89,.53s-.04,.03-.04,.06v.23s.02,.04,.04,.03l.9-.55s.03-.04,.03-.07v-.2s-.01-.04-.04-.03Z"/><path class="bash-cls-2" d="M7.05,6.19s.05,0,.05,.04v.31c.13-.05,.24-.06,.35-.04,.02,0,.03,.03,.02,.07l-.07,.27s-.02,.04-.03,.05c0,0-.01,.01-.02,.01,0,0-.02,0-.03,0-.05-.01-.15-.03-.33,.05-.18,.09-.24,.25-.24,.36,0,.14,.07,.18,.32,.18,.33,0,.47,.15,.47,.48,0,.33-.17,.67-.43,.89v.3s-.01,.08-.04,.09l-.18,.11s-.05,0-.05-.04v-.3c-.16,.06-.31,.08-.41,.04-.02,0-.03-.03-.02-.07l.06-.27s.02-.05,.03-.06c0,0,.01,0,.02-.01,.01,0,.02,0,.03,0,.11,.04,.24,.02,.38-.05,.17-.09,.28-.26,.28-.42,0-.15-.09-.22-.29-.22-.26,0-.5-.05-.5-.43,0-.31,.16-.64,.42-.84v-.31s.02-.08,.05-.09l.17-.11Z"/></g></svg>