<?xml version="1.0" encoding="UTF-8"?><svg width="1em" height="1em" xmlns="http://www.w3.org/2000/svg" viewBox="0 0 10.82 11.15"><defs><style>.postgresql-cls-1{fill:#336791;}.postgresql-cls-2{stroke-width:.1px;}.postgresql-cls-2,.postgresql-cls-3{fill:#fff;}.postgresql-cls-2,.postgresql-cls-3,.postgresql-cls-4{stroke-miterlimit:2.59;}.postgresql-cls-2,.postgresql-cls-3,.postgresql-cls-5,.postgresql-cls-6{stroke:#fff;}.postgresql-cls-3{stroke-width:.05px;}.postgresql-cls-4{stroke:#000;stroke-width:.94px;}.postgresql-cls-5{stroke-linejoin:round;}.postgresql-cls-5,.postgresql-cls-6{fill:none;stroke-linecap:round;stroke-width:.31px;}.postgresql-cls-6{stroke-linejoin:bevel;}</style></defs><g id="postgresql-layer-3"><path class="postgresql-cls-4" d="M8.09,8.12c.07-.59,.05-.68,.49-.58h.11c.34,.02,.78-.05,1.04-.17,.56-.26,.89-.69,.34-.58-1.26,.26-1.35-.17-1.35-.17,1.33-1.97,1.88-4.48,1.4-5.08-1.31-1.67-3.57-.88-3.61-.86h-.01c-.25-.05-.52-.08-.84-.09-.56,0-.99,.16-1.32,.41C4.34,.99,.3-.67,.49,3.08c.04,.8,1.15,6.05,2.46,4.46,.48-.58,.94-1.07,.94-1.07,.23,.16,.51,.23,.8,.21l.02-.02c0,.07,0,.14,0,.23-.34,.38-.24,.45-.92,.59-.69,.14-.28,.39-.02,.46,.32,.08,1.06,.19,1.56-.5l-.02,.08c.14,.1,.12,.76,.14,1.24,.02,.47,.05,.91,.15,1.17s.21,.93,1.1,.74c.75-.17,1.32-.4,1.37-2.54"/><path class="postgresql-cls-1" d="M10.07,6.79c-1.26,.26-1.35-.17-1.35-.17,1.33-1.97,1.88-4.48,1.4-5.08-1.31-1.67-3.57-.88-3.61-.86h-.01c-.25-.05-.52-.08-.84-.09-.57,0-1,.15-1.33,.4C4.34,.99,.3-.67,.49,3.08c.04,.8,1.15,6.05,2.46,4.46,.48-.58,.94-1.07,.94-1.07,.23,.16,.51,.23,.8,.21l.02-.02c0,.07,0,.14,0,.23-.34,.38-.24,.45-.92,.59-.69,.14-.28,.39-.02,.46,.32,.08,1.06,.19,1.56-.5l-.02,.08c.14,.1,.23,.69,.21,1.22-.01,.53-.03,.9,.08,1.18s.21,.93,1.1,.74c.74-.16,1.13-.58,1.18-1.27,.04-.49,.12-.42,.13-.86l.07-.21c.08-.67,.01-.88,.47-.78h.12c.34,.02,.78-.05,1.04-.17,.56-.26,.89-.69,.34-.58h0Z"/><path class="postgresql-cls-5" d="M5.4,7.17c-.03,1.24,0,2.48,.13,2.79s.38,.89,1.27,.7c.74-.16,1.02-.47,1.13-1.15,.08-.5,.25-1.9,.28-2.19"/><path class="postgresql-cls-5" d="M4.33,.96S.29-.69,.48,3.06c.04,.8,1.15,6.05,2.46,4.46,.48-.58,.92-1.04,.92-1.04"/><path class="postgresql-cls-5" d="M6.51,.66c-.14,.05,2.24-.87,3.6,.86,.48,.61-.08,3.12-1.4,5.08"/><path class="postgresql-cls-6" d="M8.71,6.6s.08,.43,1.35,.17c.55-.12,.22,.32-.34,.58-.46,.21-1.49,.27-1.51-.03-.03-.76,.55-.53,.5-.72-.04-.17-.3-.34-.47-.76-.15-.37-2.07-3.18,.53-2.76,.1-.02-.68-2.48-3.12-2.52-2.43-.04-2.35,3-2.35,3"/><path class="postgresql-cls-5" d="M4.72,6.87c-.34,.38-.24,.45-.92,.59-.69,.14-.28,.39-.02,.46,.32,.08,1.06,.19,1.56-.5,.16-.21,0-.55-.21-.64-.1-.05-.24-.1-.41,.1h0Z"/><path class="postgresql-cls-5" d="M4.7,6.86c-.03-.22,.07-.49,.19-.8,.17-.47,.58-.93,.26-2.41-.24-1.1-1.84-.23-1.84-.08s.07,.76-.03,1.46c-.13,.93,.59,1.71,1.41,1.62"/><path class="postgresql-cls-2" d="M4.32,3.55c0,.05,.09,.19,.22,.2,.13,.02,.25-.09,.25-.14,0-.05-.09-.11-.23-.12-.13-.02-.24,0-.25,.06h0Z"/><path class="postgresql-cls-3" d="M8.31,3.45c0,.05-.09,.19-.23,.21-.13,.02-.25-.09-.25-.14,0-.05,.09-.11,.23-.12,.14-.03,.25,0,.25,.05h0Z"/><path class="postgresql-cls-5" d="M8.78,3.09c.02,.4-.08,.67-.1,1.1-.02,.62,.3,1.33-.18,2.04"/></g></svg>